<svg xmlns="http://www.w3.org/2000/svg" width="123" height="26" fill="none"><path fill="#FF0404" d="m13.46 25-.98-5.32H7.09L6.145 25H.685L6.565.745h6.58L19.025 25H13.46Zm-5.635-9.275h3.955L9.785 4.77l-1.96 10.955ZM27.21.745V20.66h7.63L34.28 25H21.715V.745h5.495ZM43.512.745V25h-5.495V.745h5.495Zm11.69 0-6.02 10.92L55.727 25h-5.985l-6.055-12.95L49.777.745h5.425ZM63.813.745V25h-5.495V.745h5.495Zm11.69 0-6.02 10.92L76.028 25h-5.985l-6.055-12.95L70.078.745h5.425ZM80.86 19.47c.863 0 1.575.303 2.135.91.56.607.84 1.33.84 2.17 0 .84-.28 1.563-.84 2.17-.56.583-1.272.875-2.135.875-.887 0-1.61-.292-2.17-.875-.537-.607-.805-1.33-.805-2.17 0-.84.268-1.563.805-2.17.56-.607 1.283-.91 2.17-.91ZM98.665 25l-3.955-9.345H93.205V25H87.71V.745h6.475c6.02 0 9.03 2.45 9.03 7.35 0 1.423-.303 2.707-.91 3.85-.583 1.143-1.505 2.03-2.765 2.66L104.51 25h-5.845Zm-4.34-13.16c1.167 0 2.007-.292 2.52-.875.514-.607.77-1.563.77-2.87 0-1.19-.28-2.065-.84-2.625-.537-.56-1.412-.84-2.625-.84h-.945v7.21h1.12ZM122.774 18c0 1.447-.304 2.742-.91 3.885-.607 1.12-1.517 2.018-2.73 2.695-1.214.653-2.707.98-4.48.98-2.66 0-4.679-.688-6.055-2.065-1.377-1.377-2.065-3.208-2.065-5.495V.745h5.495v17.01c0 1.26.198 2.193.595 2.8.42.607 1.096.91 2.03.91.933 0 1.598-.303 1.995-.91.42-.607.63-1.54.63-2.8V.745h5.495V18Z"/></svg>
