<svg xmlns="http://www.w3.org/2000/svg" width="20" height="20" fill="none"><path fill="#8D97F0" d="M17.464 1.948C16.968 1.49 14.96.034 10.484.014c0 0-5.276-.316-7.846 2.043C1.208 3.487.704 5.584.65 8.18c-.055 2.597-.122 7.464 4.57 8.784h.003L5.22 18.98s-.03.817.508.98c.648.204 1.031-.417 1.652-1.085.34-.367.809-.906 1.164-1.316 3.21.27 5.675-.348 5.956-.438.649-.21 4.316-.68 4.91-5.546.617-5.023-.297-8.194-1.945-9.627Zm.543 9.26c-.504 4.062-3.476 4.32-4.023 4.496-.235.074-2.402.613-5.125.437 0 0-2.03 2.449-2.663 3.086-.207.207-.434.187-.43-.223 0-.27.016-3.347.016-3.347-.004 0-.004 0 0 0-3.976-1.102-3.742-5.246-3.699-7.413.043-2.168.453-3.945 1.664-5.14 2.175-1.973 6.655-1.68 6.655-1.68C14.187 1.44 16 2.58 16.421 2.963c1.394 1.195 2.105 4.054 1.586 8.245Zm-5.43-3.156c.016.336-.488.36-.503.024-.043-.86-.445-1.278-1.273-1.324-.336-.02-.305-.524.027-.504 1.09.058 1.695.683 1.75 1.804Zm.794.442c.039-1.656-.996-2.953-2.96-3.098-.333-.023-.298-.527.034-.504 2.266.164 3.472 1.723 3.43 3.613-.004.336-.512.32-.504-.011Zm1.835.523c.004.336-.503.34-.503.004-.024-3.183-2.145-4.918-4.719-4.937-.332-.004-.332-.504 0-.504 2.879.02 5.195 2.008 5.222 5.437Zm-.441 3.832v.007c-.422.742-1.21 1.563-2.023 1.3l-.008-.01c-.824-.231-2.765-1.231-3.992-2.208a10.21 10.21 0 0 1-1.656-1.656 12.675 12.675 0 0 1-1.203-1.82C5.051 6.96 4.868 6.287 4.868 6.287c-.262-.813.554-1.602 1.3-2.023h.008c.36-.188.703-.125.934.152 0 0 .484.578.691.863.195.266.457.691.594.93.238.425.09.859-.145 1.039l-.469.375c-.238.19-.207.546-.207.546s.696 2.629 3.293 3.293c0 0 .355.031.547-.207l.375-.469c.18-.234.613-.383 1.039-.144.574.324 1.304.828 1.789 1.285.273.222.335.562.148.921Z"/></svg>